<?xml version="1.0" encoding="UTF-8" standalone="no"?>
<!-- Created with Inkscape (http://www.inkscape.org/) -->

<svg
   xmlns:svg="http://www.w3.org/2000/svg"
   xmlns="http://www.w3.org/2000/svg"
   xmlns:xlink="http://www.w3.org/1999/xlink"
   version="1.1"
   width="400"
   height="14"
   id="svg2">
  <defs
     id="defs4" />
  <g
     transform="translate(0,-1038.3622)"
     id="layer1">
    <path
       d="M 105,5 A 5,5 0 1 1 95,5 5,5 0 1 1 105,5 z"
       transform="translate(100,1040.3622)"
       id="path2830"
       style="fill:#ffffff;fill-opacity:1;stroke:#000000;stroke-width:2" />
    <path
       d="m 105,5 a 5,5 0 1 1 -10,-2e-7"
       transform="matrix(1,0,0,-1,100,1050.3622)"
       id="path2852"
       style="fill:#000000;fill-opacity:1;stroke:none" />
    <g
       transform="translate(0,3)"
       id="g2864">
      <path
         d="M 185,1 5,6 185,11 c 2.76142,0 5,-2.2385763 5,-5 0,-2.7614237 -2.23858,-5 -5,-5 z"
         transform="translate(0,1036.3622)"
         id="path2854"
         style="fill:none;stroke:#000000;stroke-width:2" />
      <path
         d="M 185,1 8.65625,5.90625 C 9.0939949,5.9643242 9.5458798,6 10,6 l 180,0 c 0,-2.7614237 -2.23858,-5 -5,-5 z"
         transform="translate(0,1036.3622)"
         id="path2859"
         style="fill:#000000;fill-opacity:1;stroke:none" />
    </g>
    <use
       transform="matrix(-1,0,0,1,400,0)"
       id="use2868"
       x="0"
       y="0"
       width="400"
       height="16"
       xlink:href="#g2864" />
  </g>
</svg>
