<svg xmlns="http://www.w3.org/2000/svg" viewBox="0 0 704.04 16.27"><g id="Layer_2" data-name="Layer 2"><g id="Layer_1-2" data-name="Layer 1"><rect x="49.06" y="7.14" width="605.92" height="2"/><rect y="7.14" width="36.24" height="2"/><path d="M24.71,9.14h-.89C19.25,9.14,13.08,6,9.3,3.77A14.52,14.52,0,0,1,5.81,1.56L7.06,0s1.33.91,3.27,2c2.85,1.29,7.55,2.4,13.75.38l1.49-.49ZM17.26,5.53a20.75,20.75,0,0,0,5.68,1.56l.28-2.33A22.84,22.84,0,0,1,17.26,5.53Z"/><path d="M7.06,16.27,5.81,14.71A14.52,14.52,0,0,1,9.3,12.5c3.78-2.21,10-5.36,14.52-5.36h.89l.86,7.2-1.49-.49c-6.2-2-10.89-.91-13.75.38C8.39,15.36,7.1,16.25,7.06,16.27Zm10.36-5.53a22.49,22.49,0,0,1,5.8.78l-.28-2.34a20.75,20.75,0,0,0-5.68,1.56Z"/><rect x="667.8" y="7.14" width="36.24" height="2"/><path d="M697,16.27s-1.33-.91-3.27-2c-2.85-1.29-7.55-2.4-13.74-.38l-1.49.49.85-7.2h.89c4.57,0,10.74,3.15,14.52,5.36a14.52,14.52,0,0,1,3.49,2.21ZM681.1,9.18l-.27,2.34a22,22,0,0,1,5.95-.78A20.66,20.66,0,0,0,681.1,9.18Z"/><path d="M680.22,9.14h-.89l-.85-7.21,1.49.49c6.19,2,10.89.91,13.74-.38C695.65.91,697,0,697,0l1.25,1.56a14.52,14.52,0,0,1-3.49,2.21C691,6,684.79,9.14,680.22,9.14Zm.61-4.38.27,2.33a20.56,20.56,0,0,0,5.68-1.56A22.35,22.35,0,0,1,680.83,4.76Z"/></g></g></svg>