<?xml version='1.0' encoding='utf-8'?>
<svg xmlns="http://www.w3.org/2000/svg" enable-background="new 0 0 5000 277.504" version="1.1" viewBox="0 0 5e3 277.5"> <path d="m4986.9 135.42h-1425.2c-11.319-25.13-47.021-25.179-58.364 0-95.805 0-88.274-0.095-90.24 0.19-12.054-34.792-61.018-35.595-74.217-1.219-106.73 8.418-189.74-30.197-253.66-106.65-3.246-3.882-9.44-0.816-8.299 4.114 18.639 80.505 14.563 141.32-33.656 170.75-128.37 78.34-208.28 77.678-502.51-24.862-7.925-2.761-9.177-13.277-2.255-18.019 17.742-12.154 45.132-20.809 75.298-28.458 2.764-0.701 5.711-0.23 8.139 1.266 106.62 65.703 221.54 98.121 328.95 41.731 68.973-36.21 54.059-108.12-23.094-141.71-84.234-36.673-247.21 10.486-399.93 58.783-244.02-114.81-445.64-122.81-601.64-15.901-10.138 6.947-21.243 12.324-32.964 16.019-67.691 21.344-145.86 36.56-230.63 47.913-4.144-17.404-19.753-30.363-38.425-30.363-17.301 0-31.97 11.131-37.332 26.608-1.912-0.277 5.898-0.19-90.24-0.19-11.322-25.138-47.025-25.175-58.364 0h-1425.2c-7.247 1e-3 -13.121 5.875-13.121 13.122 0 7.246 5.874 13.121 13.121 13.121h1425.2c11.319 25.13 47.023 25.179 58.364 0 95.805 0 88.274 0.095 90.24-0.19 5.362 15.477 20.03 26.607 37.332 26.607 18.711 0 34.348-13.012 38.452-30.47 107.03 0.192 193.98 30.074 261.02 89.373 3.677 3.252 9.278-0.482 7.566-5.081-25.947-69.658-32.732-132.9 19.294-165.26 133.31-82.926 320.63-72.335 553.12 24.617 2.179 0.909 2.078 4.073-0.167 4.804-83.923 27.346-83.561 28.421-97.089 27.976-126.52-104.72-384.82-88.809-375.51 24.472 2.829 34.391 23.094 61.036 71.855 73.484 126.27 32.236 246.47 8.151 379.58-44.875 10.354-4.125 21.919-3.957 32.133 0.504 222.26 97.081 397.31 124.19 539.3 38.073 82.466-50.015 179.73-66.845 285.13-62.991 13.204 34.357 62.159 33.562 74.213-1.23 1.912 0.277-5.898 0.19 90.24 0.19 11.32 25.129 47.023 25.18 58.364 0h1425.2c7.247 0 13.121-5.875 13.121-13.121-1e-3 -7.246-5.876-13.12-13.122-13.12zm-2076.7-69.093c17.502 1.317 34.493 7.96 47.056 20.217 19.025 18.562 17.453 39.228-0.389 61.556-9.565 11.969-22.824 20.516-37.498 24.922-82.066 24.638-181.1-2.898-285.78-47.75 90.465-46.688 182.69-66.011 276.61-58.945zm-832.24 126.12c-38.839-19.944-31.491-78.027 26.593-93.422 95.845-25.404 202.23-7.089 288.31 39.538-112.43 45.188-236.12 94.343-314.91 53.884z"/> </svg>